<?xml version="1.0" encoding="utf-8"?> 
<svg version="1.1" id="Squares" 
xmlns="http://www.w3.org/2000/svg" xmlns:xlink="http://www.w3.org/1999/xlink" 
x="0px" y="0px" viewBox="0 0 1000 1000" style="enable-background:new 0 0 1000 1000;" xml:space="preserve"> 
<style type="text/css"> .st0{fill:none;stroke:#000000;stroke-miterlimit:10;} </style>
<text transform="matrix(1 0 0 1 0 1000)">100</text>
<text transform="matrix(1 0 0 1 0 900)">99</text>
<text transform="matrix(1 0 0 1 0 800)">98</text>
<text transform="matrix(1 0 0 1 0 700)">97</text>
<text transform="matrix(1 0 0 1 0 600)">96</text>
<text transform="matrix(1 0 0 1 0 500)">95</text>
<text transform="matrix(1 0 0 1 0 400)">94</text>
<text transform="matrix(1 0 0 1 0 300)">93</text>
<text transform="matrix(1 0 0 1 0 200)">92</text>
<text transform="matrix(1 0 0 1 0 100)">91</text>
<text transform="matrix(1 0 0 1 100 1000)">90</text>
<text transform="matrix(1 0 0 1 100 900)">89</text>
<text transform="matrix(1 0 0 1 100 800)">88</text>
<text transform="matrix(1 0 0 1 100 700)">87</text>
<text transform="matrix(1 0 0 1 100 600)">86</text>
<text transform="matrix(1 0 0 1 100 500)">85</text>
<text transform="matrix(1 0 0 1 100 400)">84</text>
<text transform="matrix(1 0 0 1 100 300)">83</text>
<text transform="matrix(1 0 0 1 100 200)">82</text>
<text transform="matrix(1 0 0 1 100 100)">81</text>
<text transform="matrix(1 0 0 1 200 1000)">80</text>
<text transform="matrix(1 0 0 1 200 900)">79</text>
<text transform="matrix(1 0 0 1 200 800)">78</text>
<text transform="matrix(1 0 0 1 200 700)">77</text>
<text transform="matrix(1 0 0 1 200 600)">76</text>
<text transform="matrix(1 0 0 1 200 500)">75</text>
<text transform="matrix(1 0 0 1 200 400)">74</text>
<text transform="matrix(1 0 0 1 200 300)">73</text>
<text transform="matrix(1 0 0 1 200 200)">72</text>
<text transform="matrix(1 0 0 1 200 100)">71</text>
<text transform="matrix(1 0 0 1 300 1000)">70</text>
<text transform="matrix(1 0 0 1 300 900)">69</text>
<text transform="matrix(1 0 0 1 300 800)">68</text>
<text transform="matrix(1 0 0 1 300 700)">67</text>
<text transform="matrix(1 0 0 1 300 600)">66</text>
<text transform="matrix(1 0 0 1 300 500)">65</text>
<text transform="matrix(1 0 0 1 300 400)">64</text>
<text transform="matrix(1 0 0 1 300 300)">63</text>
<text transform="matrix(1 0 0 1 300 200)">62</text>
<text transform="matrix(1 0 0 1 300 100)">61</text>
<text transform="matrix(1 0 0 1 400 1000)">60</text>
<text transform="matrix(1 0 0 1 400 900)">59</text>
<text transform="matrix(1 0 0 1 400 800)">58</text>
<text transform="matrix(1 0 0 1 400 700)">57</text>
<text transform="matrix(1 0 0 1 400 600)">56</text>
<text transform="matrix(1 0 0 1 400 500)">55</text>
<text transform="matrix(1 0 0 1 400 400)">54</text>
<text transform="matrix(1 0 0 1 400 300)">53</text>
<text transform="matrix(1 0 0 1 400 200)">52</text>
<text transform="matrix(1 0 0 1 400 100)">51</text>
<text transform="matrix(1 0 0 1 500 1000)">50</text>
<text transform="matrix(1 0 0 1 500 900)">49</text>
<text transform="matrix(1 0 0 1 500 800)">48</text>
<text transform="matrix(1 0 0 1 500 700)">47</text>
<text transform="matrix(1 0 0 1 500 600)">46</text>
<text transform="matrix(1 0 0 1 500 500)">45</text>
<text transform="matrix(1 0 0 1 500 400)">44</text>
<text transform="matrix(1 0 0 1 500 300)">43</text>
<text transform="matrix(1 0 0 1 500 200)">42</text>
<text transform="matrix(1 0 0 1 500 100)">41</text>
<text transform="matrix(1 0 0 1 600 1000)">40</text>
<text transform="matrix(1 0 0 1 600 900)">39</text>
<text transform="matrix(1 0 0 1 600 800)">38</text>
<text transform="matrix(1 0 0 1 600 700)">37</text>
<text transform="matrix(1 0 0 1 600 600)">36</text>
<text transform="matrix(1 0 0 1 600 500)">35</text>
<text transform="matrix(1 0 0 1 600 400)">34</text>
<text transform="matrix(1 0 0 1 600 300)">33</text>
<text transform="matrix(1 0 0 1 600 200)">32</text>
<text transform="matrix(1 0 0 1 600 100)">31</text>
<text transform="matrix(1 0 0 1 700 1000)">30</text>
<text transform="matrix(1 0 0 1 700 900)">29</text>
<text transform="matrix(1 0 0 1 700 800)">28</text>
<text transform="matrix(1 0 0 1 700 700)">27</text>
<text transform="matrix(1 0 0 1 700 600)">26</text>
<text transform="matrix(1 0 0 1 700 500)">25</text>
<text transform="matrix(1 0 0 1 700 400)">24</text>
<text transform="matrix(1 0 0 1 700 300)">23</text>
<text transform="matrix(1 0 0 1 700 200)">22</text>
<text transform="matrix(1 0 0 1 700 100)">21</text>
<text transform="matrix(1 0 0 1 800 1000)">20</text>
<text transform="matrix(1 0 0 1 800 900)">19</text>
<text transform="matrix(1 0 0 1 800 800)">18</text>
<text transform="matrix(1 0 0 1 800 700)">17</text>
<text transform="matrix(1 0 0 1 800 600)">16</text>
<text transform="matrix(1 0 0 1 800 500)">15</text>
<text transform="matrix(1 0 0 1 800 400)">14</text>
<text transform="matrix(1 0 0 1 800 300)">13</text>
<text transform="matrix(1 0 0 1 800 200)">12</text>
<text transform="matrix(1 0 0 1 800 100)">11</text>
<text transform="matrix(1 0 0 1 900 1000)">10</text>
<text transform="matrix(1 0 0 1 900 900)">9</text>
<text transform="matrix(1 0 0 1 900 800)">8</text>
<text transform="matrix(1 0 0 1 900 700)">7</text>
<text transform="matrix(1 0 0 1 900 600)">6</text>
<text transform="matrix(1 0 0 1 900 500)">5</text>
<text transform="matrix(1 0 0 1 900 400)">4</text>
<text transform="matrix(1 0 0 1 900 300)">3</text>
<text transform="matrix(1 0 0 1 900 200)">2</text>
<text transform="matrix(1 0 0 1 900 100)">1</text>
<line class="st0" x1="0" y1="100" x2="1000" y2="100"/>
<line class="st0" x1="0" y1="200" x2="1000" y2="200"/>
<line class="st0" x1="0" y1="300" x2="1000" y2="300"/>
<line class="st0" x1="0" y1="400" x2="1000" y2="400"/>
<line class="st0" x1="0" y1="500" x2="1000" y2="500"/>
<line class="st0" x1="0" y1="600" x2="1000" y2="600"/>
<line class="st0" x1="0" y1="700" x2="1000" y2="700"/>
<line class="st0" x1="0" y1="800" x2="1000" y2="800"/>
<line class="st0" x1="0" y1="900" x2="1000" y2="900"/>
<line class="st0" x1="0" y1="1000" x2="1000" y2="1000"/>
<line class="st0" x1="100" y1="0" x2="100" y2="1000"/>
<line class="st0" x1="1000" y1="0" x2="1000" y2="1000"/>
<line class="st0" x1="200" y1="0" x2="200" y2="1000"/>
<line class="st0" x1="300" y1="0" x2="300" y2="1000"/>
<line class="st0" x1="400" y1="0" x2="400" y2="1000"/>
<line class="st0" x1="500" y1="0" x2="500" y2="1000"/>
<line class="st0" x1="600" y1="0" x2="600" y2="1000"/>
<line class="st0" x1="700" y1="0" x2="700" y2="1000"/>
<line class="st0" x1="800" y1="0" x2="800" y2="1000"/>
<line class="st0" x1="900" y1="0" x2="900" y2="1000"/>
</svg>